<?xml version="1.0" encoding="UTF-8"?>
<svg width="32px" height="30px" viewBox="0 0 32 30" version="1.1" xmlns="http://www.w3.org/2000/svg" xmlns:xlink="http://www.w3.org/1999/xlink">
    <title>Fill 1</title>
    <g id="Page-1" stroke="none" stroke-width="1" fill="none" fill-rule="evenodd">
        <g id="My-Desk-notes" transform="translate(-86.000000, -172.000000)" fill="#FFFFFF">
            <path d="M115.090909,191.85 L88.9090909,191.85 L88.9090909,202 L92.1818182,202 L92.1818182,195.233333 L111.818182,195.233333 L111.818182,202 L115.090909,202 L115.090909,191.85 Z M86,188.95 L90.3636364,188.95 L90.3636364,184.6 L86,184.6 L86,188.95 Z M113.636364,188.95 L118,188.95 L118,184.6 L113.636364,184.6 L113.636364,188.95 Z M97.0376176,172 C95.3180773,172 93.9111808,173.390909 93.9111808,175.090909 L93.9111808,189 L109.543365,189 L109.543365,175.090909 C109.543365,173.390909 108.136468,172 106.416928,172 L97.0376176,172 Z M96.6363636,186.5 L106.818182,186.5 L106.818182,174.9 L96.6363636,174.9 L96.6363636,186.5 Z" id="Fill-1"></path>
        </g>
    </g>
</svg>