<?xml version="1.0" encoding="UTF-8"?>
<svg width="28px" height="28px" viewBox="0 0 28 28" version="1.1" xmlns="http://www.w3.org/2000/svg" xmlns:xlink="http://www.w3.org/1999/xlink">
    <title>Fill 1</title>
    <g id="Page-1" stroke="none" stroke-width="1" fill="none" fill-rule="evenodd">
        <g id="My-Desk-notes" transform="translate(-23.000000, -208.000000)" fill="#FFFFFF">
            <path d="M38.4,217.8 L51,217.8 L51,208 L38.4,208 L38.4,217.8 Z M41.2,215 L48.2,215 L48.2,210.8 L41.2,210.8 L41.2,215 Z M23,223.4 L35.6,223.4 L35.6,208 L23,208 L23,223.4 Z M25.8,220.6 L32.8037064,220.6 L32.8037064,210.8 L25.8,210.8 L25.8,220.6 Z M38.4,236 L51,236 L51,220.6 L38.4,220.6 L38.4,236 Z M41.2,233.2 L48.2,233.2 L48.2,223.4 L41.2,223.4 L41.2,233.2 Z M23,236 L35.6,236 L35.6,226.2 L23,226.2 L23,236 Z M25.8,233.145843 L32.8,233.145843 L32.8,228.945843 L25.8,228.945843 L25.8,233.145843 Z" id="Fill-1"></path>
        </g>
    </g>
</svg>