<?xml version="1.0" encoding="UTF-8"?>
<svg width="27px" height="30px" viewBox="0 0 27 30" version="1.1" xmlns="http://www.w3.org/2000/svg" xmlns:xlink="http://www.w3.org/1999/xlink">
    <title>Group 5</title>
    <g id="Page-1" stroke="none" stroke-width="1" fill="none" fill-rule="evenodd">
        <g id="My-Desk-notes" transform="translate(-122.000000, -103.000000)" fill="#FFFFFF">
            <g id="Group-2" transform="translate(122.000000, 103.000000)">
                <path d="M3,27 L24,27 L24,6 L3,6 L3,27 Z M13.5,2.625 C14.115,2.625 14.625,3.135 14.625,3.75 C14.625,4.365 14.115,4.875 13.5,4.875 C12.885,4.875 12.375,4.365 12.375,3.75 C12.375,3.135 12.885,2.625 13.5,2.625 L13.5,2.625 Z M24,3 L17.73,3 C17.1,1.26 15.45,0 13.5,0 C11.55,0 9.9,1.26 9.27,3 L3,3 C1.35,3 0,4.35 0,6 L0,27 C0,28.65 1.35,30 3,30 L24,30 C25.65,30 27,28.65 27,27 L27,6 C27,4.35 25.65,3 24,3 L24,3 Z" id="Fill-1"></path>
                <polygon id="Fill-3" points="17.0526316 15.8520219 14.069828 12.8571429 5.68421053 21.2639943 5.68421053 24.2857143 8.63887441 24.2857143"></polygon>
                <path d="M19.7027027,12.9214929 C19.9587482,12.6640927 19.9587482,12.2651223 19.7027027,12.007722 L17.898862,10.1930502 C17.6428165,9.93564994 17.2446657,9.93564994 16.9899004,10.1930502 L15.6315789,11.5572716 L18.3456615,14.2857143 L19.7027027,12.9214929 Z" id="Fill-4"></path>
            </g>
        </g>
    </g>
</svg>